<?xml version="1.0" encoding="UTF-8"?>
<svg version="1.1" xmlns="http://www.w3.org/2000/svg" width="256" height="256">
<path d="M0 0 C5.28 0 10.56 0 16 0 C16 5.28 16 10.56 16 16 C21.28 16 26.56 16 32 16 C32 10.72 32 5.44 32 0 C37.28 0 42.56 0 48 0 C48.495 9.405 48.495 9.405 49 19 C51.660625 20.051875 51.660625 20.051875 54.375 21.125 C74.56354187 29.61175238 90.07576225 43.95427387 98.52734375 64.22265625 C99.02356207 65.47967868 99.51464623 66.73874279 100 68 C100.65162109 69.66869141 100.65162109 69.66869141 101.31640625 71.37109375 C107.83427113 91.37889499 105.24554734 113.72798332 96.1875 132.375 C93.07747734 138.46004784 89.50127268 143.84123805 85 149 C84.22785156 149.96808594 83.45570313 150.93617188 82.66015625 151.93359375 C74.07548048 162.21780657 61.54140046 168.81953318 49 173 C48.67 179.27 48.34 185.54 48 192 C42.72 192 37.44 192 32 192 C32 186.72 32 181.44 32 176 C26.72 176 21.44 176 16 176 C16 181.28 16 186.56 16 192 C10.72 192 5.44 192 0 192 C-0.33 185.73 -0.66 179.46 -1 173 C-2.77375 172.29875 -4.5475 171.5975 -6.375 170.875 C-26.56354187 162.38824762 -42.07576225 148.04572613 -50.52734375 127.77734375 C-51.02356207 126.52032132 -51.51464623 125.26125721 -52 124 C-52.65162109 122.33130859 -52.65162109 122.33130859 -53.31640625 120.62890625 C-59.83427113 100.62110501 -57.24554734 78.27201668 -48.1875 59.625 C-45.07747734 53.53995216 -41.50127268 48.15876195 -37 43 C-35.84177734 41.54787109 -35.84177734 41.54787109 -34.66015625 40.06640625 C-26.07548048 29.78219343 -13.54140046 23.18046682 -1 19 C-0.67 12.73 -0.34 6.46 0 0 Z M16 41 C16 77.3 16 113.6 16 151 C24.67724089 152.34358228 24.67724089 152.34358228 32 151 C32 114.7 32 78.4 32 41 C23.32275911 39.65641772 23.32275911 39.65641772 16 41 Z M48 46 C48 79 48 112 48 146 C62.37064813 138.01630659 72.28953046 128.11320187 77.5 112.3125 C81.46826176 97.25858956 80.00368984 83.00737968 73 69 C66.58625156 58.60617841 58.8905679 51.44528395 48 46 Z M-16.20703125 57.02734375 C-26.16534727 68.01970612 -32.16652298 82.05456248 -32 97 C-30.89391271 112.76174391 -25.04270434 126.55651101 -13.40625 137.421875 C-9.03617463 141.02850347 -5.14185532 143.42907234 0 146 C0 113 0 80 0 46 C-4.71432903 46 -12.81330259 53.90991866 -16.20703125 57.02734375 Z " fill="#FFFFFF" transform="translate(104,32)"/>
</svg>
